<mxfile host="app.diagrams.net" modified="2022-03-06T08:22:15.046Z" agent="5.0 (Windows NT 10.0; Win64; x64) AppleWebKit/537.36 (KHTML, like Gecko) Chrome/99.0.4844.51 Safari/537.36" etag="4-07n0CvWplXuA1Xj6VA" version="16.6.6" type="github">
  <diagram id="nu34fbJuvBvFDGxtE1UO" name="PPP">
    <mxGraphModel dx="541" dy="967" grid="1" gridSize="10" guides="1" tooltips="1" connect="1" arrows="1" fold="1" page="1" pageScale="1" pageWidth="827" pageHeight="1169" math="0" shadow="0">
      <root>
        <mxCell id="0" />
        <mxCell id="1" parent="0" />
        <mxCell id="fBh4ugHpPi-L7ImjcBGB-1" value="标志&lt;br&gt;(0x7E)" style="rounded=0;whiteSpace=wrap;html=1;" vertex="1" parent="1">
          <mxGeometry x="240" y="240" width="60" height="40" as="geometry" />
        </mxCell>
        <mxCell id="fBh4ugHpPi-L7ImjcBGB-2" value="地址&lt;br&gt;(0xFF)" style="rounded=0;whiteSpace=wrap;html=1;" vertex="1" parent="1">
          <mxGeometry x="300" y="240" width="60" height="40" as="geometry" />
        </mxCell>
        <mxCell id="fBh4ugHpPi-L7ImjcBGB-3" value="控制&lt;br&gt;(0x03)" style="rounded=0;whiteSpace=wrap;html=1;" vertex="1" parent="1">
          <mxGeometry x="360" y="240" width="60" height="40" as="geometry" />
        </mxCell>
        <mxCell id="fBh4ugHpPi-L7ImjcBGB-4" value="协议" style="rounded=0;whiteSpace=wrap;html=1;dashed=1;" vertex="1" parent="1">
          <mxGeometry x="420" y="240" width="50" height="40" as="geometry" />
        </mxCell>
        <mxCell id="fBh4ugHpPi-L7ImjcBGB-5" value="数据封装" style="rounded=0;whiteSpace=wrap;html=1;" vertex="1" parent="1">
          <mxGeometry x="470" y="240" width="130" height="40" as="geometry" />
        </mxCell>
        <mxCell id="fBh4ugHpPi-L7ImjcBGB-6" value="填充" style="rounded=0;whiteSpace=wrap;html=1;" vertex="1" parent="1">
          <mxGeometry x="600" y="240" width="90" height="40" as="geometry" />
        </mxCell>
        <mxCell id="fBh4ugHpPi-L7ImjcBGB-8" value="FCS" style="rounded=0;whiteSpace=wrap;html=1;" vertex="1" parent="1">
          <mxGeometry x="690" y="240" width="40" height="40" as="geometry" />
        </mxCell>
        <mxCell id="fBh4ugHpPi-L7ImjcBGB-10" value="Flag" style="rounded=0;whiteSpace=wrap;html=1;" vertex="1" parent="1">
          <mxGeometry x="730" y="240" width="40" height="40" as="geometry" />
        </mxCell>
        <mxCell id="fBh4ugHpPi-L7ImjcBGB-16" value="" style="group" vertex="1" connectable="0" parent="1">
          <mxGeometry x="770" y="240" width="110" height="40" as="geometry" />
        </mxCell>
        <mxCell id="fBh4ugHpPi-L7ImjcBGB-12" value="Inter-frame Fill or&lt;br&gt;next Address" style="shape=partialRectangle;whiteSpace=wrap;html=1;bottom=0;right=0;fillColor=none;dashed=1;" vertex="1" parent="fBh4ugHpPi-L7ImjcBGB-16">
          <mxGeometry width="110" height="40" as="geometry" />
        </mxCell>
        <mxCell id="fBh4ugHpPi-L7ImjcBGB-15" value="" style="endArrow=none;dashed=1;html=1;rounded=0;exitX=0;exitY=1;exitDx=0;exitDy=0;entryX=1;entryY=1;entryDx=0;entryDy=0;" edge="1" parent="fBh4ugHpPi-L7ImjcBGB-16" source="fBh4ugHpPi-L7ImjcBGB-12" target="fBh4ugHpPi-L7ImjcBGB-12">
          <mxGeometry width="50" height="50" relative="1" as="geometry">
            <mxPoint x="18.5" y="66.66666666666667" as="sourcePoint" />
            <mxPoint x="64.75" y="33.333333333333336" as="targetPoint" />
          </mxGeometry>
        </mxCell>
        <mxCell id="fBh4ugHpPi-L7ImjcBGB-19" style="edgeStyle=orthogonalEdgeStyle;rounded=0;orthogonalLoop=1;jettySize=auto;html=1;fontSize=16;" edge="1" parent="1" source="fBh4ugHpPi-L7ImjcBGB-18">
          <mxGeometry relative="1" as="geometry">
            <mxPoint x="310" y="220" as="targetPoint" />
          </mxGeometry>
        </mxCell>
        <mxCell id="fBh4ugHpPi-L7ImjcBGB-20" style="edgeStyle=orthogonalEdgeStyle;rounded=0;orthogonalLoop=1;jettySize=auto;html=1;fontSize=16;" edge="1" parent="1" source="fBh4ugHpPi-L7ImjcBGB-18">
          <mxGeometry relative="1" as="geometry">
            <mxPoint x="690" y="220" as="targetPoint" />
          </mxGeometry>
        </mxCell>
        <mxCell id="fBh4ugHpPi-L7ImjcBGB-18" value="&lt;font style=&quot;font-size: 16px&quot;&gt;FCS范围&lt;/font&gt;" style="text;html=1;align=center;verticalAlign=middle;resizable=0;points=[];autosize=1;strokeColor=none;fillColor=none;" vertex="1" parent="1">
          <mxGeometry x="485" y="210" width="80" height="20" as="geometry" />
        </mxCell>
        <mxCell id="fBh4ugHpPi-L7ImjcBGB-22" style="edgeStyle=orthogonalEdgeStyle;rounded=0;orthogonalLoop=1;jettySize=auto;html=1;fontSize=16;" edge="1" parent="1" source="fBh4ugHpPi-L7ImjcBGB-21">
          <mxGeometry relative="1" as="geometry">
            <mxPoint x="690" y="310" as="targetPoint" />
          </mxGeometry>
        </mxCell>
        <mxCell id="fBh4ugHpPi-L7ImjcBGB-23" style="edgeStyle=orthogonalEdgeStyle;rounded=0;orthogonalLoop=1;jettySize=auto;html=1;fontSize=16;" edge="1" parent="1" source="fBh4ugHpPi-L7ImjcBGB-21">
          <mxGeometry relative="1" as="geometry">
            <mxPoint x="470" y="310" as="targetPoint" />
          </mxGeometry>
        </mxCell>
        <mxCell id="fBh4ugHpPi-L7ImjcBGB-21" value="MRU" style="text;html=1;align=center;verticalAlign=middle;resizable=0;points=[];autosize=1;strokeColor=none;fillColor=none;fontSize=16;" vertex="1" parent="1">
          <mxGeometry x="585" y="300" width="50" height="20" as="geometry" />
        </mxCell>
      </root>
    </mxGraphModel>
  </diagram>
</mxfile>
